HIERARCHY
ROOT Hips
{
	OFFSET 0.000000 0.000000 0.000000
	CHANNELS 6 Xposition Yposition Zposition Zrotation Yrotation Xrotation 
	JOINT LeftUpLeg_virtual
	{
		OFFSET 0.000000 0.000000 0.000000
		CHANNELS 3 Zrotation Yrotation Xrotation
		JOINT LeftUpLeg
		{
			OFFSET 10.205400 -3.823500 0.155100
			CHANNELS 3 Zrotation Yrotation Xrotation
			JOINT LeftLeg
			{
				OFFSET 0.708757 -12.982077 0.567790
				CHANNELS 3 Zrotation Yrotation Xrotation
				JOINT LeftFoot
				{
					OFFSET -0.708756 -10.717838 -2.184338
					CHANNELS 3 Zrotation Yrotation Xrotation
					JOINT LeftToeBase
					{
						OFFSET 0.108149 -7.191104 7.560241
						CHANNELS 3 Zrotation Yrotation Xrotation
						End Site
						{
							OFFSET 0.000000 0.000000 0.000000
						}
					}
				}
			}
		}
	}
	JOINT RightUpLeg_virtual
	{
		OFFSET 0.000000 0.000000 0.000000
		CHANNELS 3 Zrotation Yrotation Xrotation
		JOINT RightUpLeg
		{
			OFFSET -10.205400 -3.823500 0.005500
			CHANNELS 3 Zrotation Yrotation Xrotation
			JOINT RightLeg
			{
				OFFSET -0.708756 -12.982134 0.610632
				CHANNELS 3 Zrotation Yrotation Xrotation
				JOINT RightFoot
				{
					OFFSET 0.708754 -10.717769 -1.945823
					CHANNELS 3 Zrotation Yrotation Xrotation
					JOINT RightToeBase
					{
						OFFSET -0.108140 -7.191069 7.372968
						CHANNELS 3 Zrotation Yrotation Xrotation
						End Site
						{
							OFFSET 0.000000 0.000000 0.000000
						}
					}
				}
			}
		}
	}
	JOINT Spine_virtual
	{
		OFFSET 0.000000 0.000000 0.000000
		CHANNELS 3 Zrotation Yrotation Xrotation
		JOINT Spine
		{
			OFFSET 0.000000 6.876099 0.125700
			CHANNELS 3 Zrotation Yrotation Xrotation
			JOINT Spine1
			{
				OFFSET 0.000000 8.022060 0.146608
				CHANNELS 3 Zrotation Yrotation Xrotation
				JOINT Spine2
				{
					OFFSET 0.000000 9.168068 0.167552
					CHANNELS 3 Zrotation Yrotation Xrotation
					JOINT Neck_virtual
					{
						OFFSET 0.000000 0.000000 0.000000
						CHANNELS 3 Zrotation Yrotation Xrotation
						JOINT Neck
						{
							OFFSET 0.000000 10.314075 0.188496
							CHANNELS 3 Zrotation Yrotation Xrotation
							JOINT Head
							{
								OFFSET 0.000000 7.643700 -2.377400
								CHANNELS 3 Zrotation Yrotation Xrotation
								End Site
								{
									OFFSET 0.000000 0.000000 0.000000
								}
							}
						}
					}
					JOINT LeftShoulder_virtual
					{
						OFFSET 0.000000 0.000000 0.000000
						CHANNELS 3 Zrotation Yrotation Xrotation
						JOINT LeftShoulder
						{
							OFFSET 4.392200 8.824978 0.174984
							CHANNELS 3 Zrotation Yrotation Xrotation
							JOINT LeftArm
							{
								OFFSET 8.771219 -2.981674 -0.026999
								CHANNELS 3 Zrotation Yrotation Xrotation
								JOINT LeftForeArm
								{
									OFFSET 8.512804 0.000000 -0.000000
									CHANNELS 3 Zrotation Yrotation Xrotation
									JOINT LeftHand
									{
										OFFSET 18.484802 0.000000 -0.000000
										CHANNELS 3 Zrotation Yrotation Xrotation
										End Site
										{
											OFFSET 0.000000 0.000000 0.000000
										}
									}
								}
							}
						}
					}
					JOINT RightShoulder_virtual
					{
						OFFSET 0.000000 0.000000 0.000000
						CHANNELS 3 Zrotation Yrotation Xrotation
						JOINT RightShoulder
						{
							OFFSET -4.392200 8.824993 0.141379
							CHANNELS 3 Zrotation Yrotation Xrotation
							JOINT RightArm
							{
								OFFSET -8.771282 -2.981682 -0.094208
								CHANNELS 3 Zrotation Yrotation Xrotation
								JOINT RightForeArm
								{
									OFFSET -8.494598 0.000000 0.000000
									CHANNELS 3 Zrotation Yrotation Xrotation
									JOINT RightHand
									{
										OFFSET -18.483803 0.000000 0.000001
										CHANNELS 3 Zrotation Yrotation Xrotation
										End Site
										{
											OFFSET 0.000000 0.000000 0.000000
										}
									}
								}
							}
						}
					}
				}
			}
		}
	}
}
MOTION
Frames: 13
Frame Time: 0.033333
6.828143 36.447102 4.583731 179.344553 4.268800 -179.084418 -3.245135 -2.237895 9.019644 -3.849737 -0.006109 -17.465065 6.843782 7.788515 14.700334 -6.249472 0.978227 9.282583 0.000000 0.000000 0.000000 3.173442 -0.154205 9.254911 3.118555 -8.164000 -5.789648 -6.423451 1.027795 13.120997 5.572057 7.356835 10.147482 0.000000 0.000000 0.000000 0.852865 1.100564 -1.336821 -4.081122 1.333164 -6.473478 1.128486 -4.702315 3.907150 0.059861 -0.029793 0.044361 1.030405 -3.026652 5.616242 0.971155 2.752004 1.794707 0.000000 0.000000 0.000000 2.331602 -2.252591 2.847346 1.024633 -1.012995 -3.611715 -11.420067 27.121559 -26.009161 -5.809047 -32.155947 -3.617722 0.000000 0.000000 0.000000 -1.007610 -1.579630 2.331833 10.886933 -0.103459 -6.230467 32.659704 -33.558949 -39.769046 -1.567534 32.922728 -4.766048 0.000000 0.000000 0.000000 
6.814873 36.442394 4.630408 179.012592 4.391976 -178.852574 -3.528490 -2.176631 8.911852 -3.979356 0.155304 -17.624912 6.711133 7.975815 14.767168 -6.261453 0.963986 9.256522 0.000000 0.000000 0.000000 3.311253 -0.328966 9.518234 3.074048 -8.046245 -5.550463 -6.545146 1.317379 13.274596 5.425488 7.351656 10.513831 0.000000 0.000000 0.000000 0.650350 1.119016 -1.452328 -4.220409 1.388045 -6.579248 1.076359 -4.596930 3.867024 0.060575 0.024733 0.189396 1.148279 -3.148566 5.537318 1.089328 2.854501 1.744673 0.000000 0.000000 0.000000 2.399151 -2.287950 2.896858 1.076946 -1.033130 -3.744979 -11.336020 27.089707 -25.941706 -5.800864 -32.127509 -3.651462 0.000000 0.000000 0.000000 -0.964221 -1.614523 2.446030 10.908207 -0.134866 -6.410502 32.595268 -33.583309 -39.722389 -1.478633 32.943027 -4.631564 0.000000 0.000000 0.000000 
6.804074 36.441586 4.675864 179.104991 4.401367 -178.856618 -3.435269 -2.019401 8.887956 -3.985313 0.151919 -17.672710 6.722419 8.014633 14.686109 -6.272876 0.966679 9.318020 0.000000 0.000000 0.000000 3.350438 -0.269803 9.538624 3.131069 -8.052551 -5.604878 -6.527088 1.245208 13.238820 5.477865 7.302285 10.555866 0.000000 0.000000 0.000000 0.713347 1.044586 -1.355075 -4.157857 1.476417 -6.609999 1.078083 -4.527016 3.827047 0.083934 -0.069399 0.206633 1.104647 -2.948220 5.507620 1.114715 2.836116 1.741634 0.000000 0.000000 0.000000 2.332654 -2.282186 2.917706 1.087730 -1.001830 -3.629643 -11.267584 27.062418 -25.871923 -5.816452 -32.063746 -3.615333 0.000000 0.000000 0.000000 -1.017671 -1.584115 2.407570 10.915016 -0.089320 -6.283625 32.664376 -33.584115 -39.747593 -1.542726 33.090368 -4.727964 0.000000 0.000000 0.000000 
6.802918 36.438366 4.714478 179.019490 4.399449 -178.871835 -3.516258 -1.979871 8.865352 -4.033006 0.130259 -17.708876 6.702548 7.961023 14.531414 -6.231519 1.039848 9.469940 0.000000 0.000000 0.000000 3.275896 -0.206591 9.567873 3.137992 -8.109408 -5.674812 -6.537423 1.250418 13.222638 5.558676 7.238440 10.598259 0.000000 0.000000 0.000000 0.668757 1.196873 -1.294895 -4.169282 1.350161 -6.619763 1.050462 -4.665178 3.810002 0.084953 -0.002210 0.173283 1.089617 -2.953018 5.480078 1.184802 2.839116 1.783016 0.000000 0.000000 0.000000 2.319436 -2.290543 2.872424 1.063901 -0.961641 -3.500870 -11.251087 26.990063 -25.744872 -5.790125 -32.100311 -3.636076 0.000000 0.000000 0.000000 -1.058109 -1.539163 2.551926 10.869390 -0.002830 -6.312968 32.653167 -33.585987 -39.677067 -1.565971 33.052867 -4.745390 0.000000 0.000000 0.000000 
6.805115 36.435070 4.741140 179.115222 4.423841 -178.849514 -3.353470 -1.922460 8.846333 -4.085596 0.068645 -17.722932 6.728149 7.870547 14.460518 -6.233170 1.099420 9.541943 0.000000 0.000000 0.000000 3.333934 -0.167689 9.573782 3.197146 -8.129283 -5.761885 -6.522089 1.203398 13.230356 5.646663 7.156274 10.664257 0.000000 0.000000 0.000000 0.753069 1.245189 -1.247674 -4.085757 1.351829 -6.595849 1.033682 -4.663374 3.817848 0.069223 0.000711 0.166011 1.073726 -2.919448 5.447273 1.277155 2.827519 1.787284 0.000000 0.000000 0.000000 2.288327 -2.275595 2.871184 1.111962 -0.896038 -3.595101 -11.112315 26.868970 -25.412223 -5.841580 -32.129333 -3.542077 0.000000 0.000000 0.000000 -1.071806 -1.562310 2.346127 10.902252 0.016622 -6.114403 32.767406 -33.522749 -39.787351 -1.584197 33.247892 -4.739382 0.000000 0.000000 0.000000 
6.813654 36.433125 4.760381 178.917693 4.467162 -178.857068 -3.573172 -1.937306 8.841828 -4.142146 0.097236 -17.749146 6.752821 7.715772 14.447317 -6.072116 1.321715 9.553608 0.000000 0.000000 0.000000 3.186999 -0.153916 9.567917 3.161966 -8.133832 -5.850830 -6.552111 1.266473 13.272199 5.732484 7.052755 10.702406 0.000000 0.000000 0.000000 0.614781 1.282432 -1.243718 -4.122774 1.338354 -6.555748 1.030308 -4.678714 3.859120 0.111353 -0.000772 0.185822 0.959293 -3.206222 5.415850 1.174633 2.628191 1.818023 0.000000 0.000000 0.000000 2.324517 -2.276286 2.946391 1.099301 -0.845820 -3.637804 -11.185598 26.743018 -25.180870 -5.852709 -32.237065 -3.444160 0.000000 0.000000 0.000000 -1.071231 -1.568012 2.355070 10.837064 0.070999 -6.140805 32.770066 -33.447177 -39.804256 -1.566767 33.298477 -4.657758 0.000000 0.000000 0.000000 
6.819790 36.430340 4.785198 178.942350 4.524032 -178.846441 -3.494205 -1.960365 8.802519 -4.172773 -0.163325 -17.810439 6.706639 7.361828 14.538355 -6.028084 1.460698 9.565619 0.000000 0.000000 0.000000 3.181806 -0.170849 9.539210 3.199236 -8.159838 -5.955344 -6.524930 1.284258 13.336346 5.827217 6.971668 10.754582 0.000000 0.000000 0.000000 0.627027 1.288412 -1.265362 -4.116331 1.294799 -6.492237 1.037525 -4.682745 3.901504 0.091624 -0.008990 0.171531 1.012835 -3.147906 5.399081 1.277954 2.614178 1.865566 0.000000 0.000000 0.000000 2.326356 -2.266185 2.924766 1.097802 -0.834818 -3.614917 -11.152056 26.663967 -24.642640 -5.766705 -32.366228 -3.451796 0.000000 0.000000 0.000000 -1.024124 -1.532536 2.408438 10.843502 0.076861 -6.065450 33.026260 -33.363999 -40.072915 -1.614577 33.473289 -4.653170 0.000000 0.000000 0.000000 
6.823401 36.429390 4.819808 179.053901 4.563272 -178.851837 -3.381498 -1.983137 8.780056 -4.191589 -0.231741 -17.911988 6.827201 7.219569 14.681667 -6.047341 1.563402 9.606131 0.000000 0.000000 0.000000 3.222272 -0.200762 9.515744 3.277001 -8.106318 -6.057042 -6.475259 1.261792 13.432962 5.889177 6.875919 10.817208 0.000000 0.000000 0.000000 0.713272 1.219849 -1.199648 -4.092859 1.245005 -6.448431 1.040900 -4.637412 3.864094 0.091218 -0.008807 0.123411 1.105432 -2.719911 5.444840 1.537186 2.744070 1.984359 0.000000 0.000000 0.000000 2.258151 -2.218222 2.857524 1.211611 -0.869008 -3.506766 -11.293899 26.543129 -24.364538 -5.818523 -32.487440 -3.216595 0.000000 0.000000 0.000000 -1.056463 -1.518522 2.470923 10.946864 0.078554 -6.113331 33.217857 -33.334438 -40.268538 -1.656529 33.530970 -4.579257 0.000000 0.000000 0.000000 
6.840672 36.427216 4.865234 178.884594 4.630789 -178.872710 -3.612798 -1.983229 8.777224 -4.114549 -0.273239 -18.076377 6.991867 7.483293 14.854844 -6.006948 1.646190 9.597238 0.000000 0.000000 0.000000 3.064192 -0.219151 9.500065 3.271293 -8.031345 -6.182228 -6.468473 1.313285 13.520880 5.892613 6.758227 10.818761 0.000000 0.000000 0.000000 0.508397 1.277941 -1.144013 -4.137312 1.201095 -6.475662 1.069151 -4.634329 3.851347 0.112662 0.003115 0.229518 1.018329 -3.237819 5.329636 1.336525 2.438207 2.130792 0.000000 0.000000 0.000000 2.351096 -2.295556 2.944059 1.183184 -1.006570 -3.535241 -11.691394 26.656840 -23.802798 -5.709009 -32.645118 -2.988401 0.000000 0.000000 0.000000 -1.022445 -1.531002 2.322397 10.930844 0.038150 -5.822804 33.520550 -33.224267 -40.417692 -1.832816 33.406243 -4.620874 0.000000 0.000000 0.000000 
6.860088 36.426678 4.927687 179.062261 4.677849 -178.852055 -3.424035 -1.943132 8.798981 -4.034638 -0.514420 -18.273283 7.101651 7.536424 14.981736 -6.166954 1.520296 9.689497 0.000000 0.000000 0.000000 3.187426 -0.225584 9.493347 3.385142 -7.850555 -6.334796 -6.392866 1.244548 13.611922 5.846789 6.653391 10.836587 0.000000 0.000000 0.000000 0.621738 1.230940 -1.093184 -4.064284 1.189887 -6.442924 1.051053 -4.547405 3.871753 0.108885 0.028828 0.242621 1.110364 -2.979089 5.254056 1.527135 2.523763 2.223084 0.000000 0.000000 0.000000 2.271748 -2.255520 2.724434 1.323516 -1.172940 -3.545259 -11.955889 26.817867 -23.033618 -5.687771 -32.846107 -2.783187 0.000000 0.000000 0.000000 -1.054636 -1.556438 2.204361 11.043566 -0.068448 -5.650736 33.812790 -33.171032 -40.484109 -2.006965 33.595279 -4.604372 0.000000 0.000000 0.000000 
6.889513 36.423637 5.009420 179.079733 4.787072 -178.896151 -3.392004 -1.879725 8.884167 -3.983420 -0.598377 -18.482087 7.159535 7.491555 14.976238 -6.090032 1.579304 9.834739 0.000000 0.000000 0.000000 3.204217 -0.201501 9.510559 3.449510 -7.586660 -6.506766 -6.352107 1.234880 13.696593 5.724972 6.518647 10.796536 0.000000 0.000000 0.000000 0.612563 1.230108 -0.983223 -4.009889 1.152772 -6.424894 1.041424 -4.545476 3.891983 0.080173 0.016693 0.271808 1.108482 -2.738133 5.173671 1.507988 2.461522 2.411838 0.000000 0.000000 0.000000 2.213156 -2.214171 2.855238 1.404875 -1.311150 -3.323922 -12.375626 27.259036 -21.819202 -5.592058 -33.204374 -2.479234 0.000000 0.000000 0.000000 -1.078083 -1.472993 2.304873 11.170690 -0.008348 -5.572724 34.040949 -32.946107 -40.282936 -2.149289 33.548772 -4.546889 0.000000 0.000000 0.000000 
6.932220 36.420860 5.106675 178.898664 4.791496 -178.851495 -3.527368 -1.908084 8.910315 -3.913007 -0.719024 -18.791565 7.170385 7.376500 14.879128 -6.049120 1.551671 10.082788 0.000000 0.000000 0.000000 3.104671 -0.124036 9.525166 3.482298 -7.421205 -6.710171 -6.322114 1.246045 13.757522 5.561443 6.364207 10.694330 0.000000 0.000000 0.000000 0.408397 1.213785 -1.029472 -3.973998 1.113631 -6.241233 1.118104 -4.536097 4.077855 0.121813 -0.000055 -0.041548 0.962890 -3.110372 5.157987 1.204450 2.123177 2.447791 0.000000 0.000000 0.000000 2.283113 -2.111860 2.588978 1.376931 -1.462669 -3.369163 -13.220735 27.576938 -20.637528 -5.462993 -33.748801 -2.185553 0.000000 0.000000 0.000000 -1.098581 -1.523252 2.043462 11.212270 -0.104663 -5.437202 34.147544 -32.778986 -40.107766 -2.306251 33.690414 -4.401521 0.000000 0.000000 0.000000 
6.969766 36.414116 5.221637 179.067903 4.814801 -178.877067 -3.345920 -1.849314 8.963360 -3.820444 -0.810740 -19.128527 7.158317 7.257374 14.951426 -5.971261 1.545321 10.309067 0.000000 0.000000 0.000000 3.245517 -0.054622 9.575155 3.618832 -7.141583 -6.877265 -6.219059 1.148342 13.831534 5.382266 6.239346 10.627974 0.000000 0.000000 0.000000 0.573544 1.167025 -0.703718 -3.756621 1.048632 -6.264828 0.993931 -4.493293 3.903182 0.070329 -0.035174 0.005612 1.034388 -2.786736 5.261991 1.273090 2.142582 2.492440 0.000000 0.000000 0.000000 2.198055 -2.026864 2.613571 1.400949 -1.655769 -3.201049 -13.912555 28.098958 -18.847796 -5.287921 -34.396645 -1.644201 0.000000 0.000000 0.000000 -1.092872 -1.412465 2.176833 11.446073 -0.107239 -5.130049 34.243696 -32.343169 -39.762281 -2.645260 33.936338 -4.528186 0.000000 0.000000 0.000000 
